<svg width="127" height="40" viewBox="0 0 127 40" fill="none" xmlns="http://www.w3.org/2000/svg">
<g id="Logo">
<g id="tickete">
<path d="M11.3281 31.6797C11.9271 31.6797 12.5195 31.6276 13.1055 31.5234C13.6914 31.4062 14.2253 31.2695 14.707 31.1133V34.5898C14.1992 34.8112 13.5417 35 12.7344 35.1562C11.9271 35.3125 11.0872 35.3906 10.2148 35.3906C8.99088 35.3906 7.89062 35.1888 6.91406 34.7852C5.9375 34.3685 5.16276 33.6589 4.58984 32.6562C4.01693 31.6536 3.73047 30.2669 3.73047 28.4961V16.875H0.78125V14.8242L3.94531 13.2031L5.44922 8.57422H8.33984V13.3789H14.5312V16.875H8.33984V28.4375C8.33984 29.5312 8.61328 30.3451 9.16016 30.8789C9.70703 31.4128 10.4297 31.6797 11.3281 31.6797Z" fill="white"/>
<path d="M22.8914 13.3789V35H18.3016V13.3789H22.8914ZM20.6258 5.09766C21.3289 5.09766 21.9344 5.28646 22.4422 5.66406C22.963 6.04167 23.2234 6.69271 23.2234 7.61719C23.2234 8.52865 22.963 9.17969 22.4422 9.57031C21.9344 9.94792 21.3289 10.1367 20.6258 10.1367C19.8966 10.1367 19.2781 9.94792 18.7703 9.57031C18.2755 9.17969 18.0281 8.52865 18.0281 7.61719C18.0281 6.69271 18.2755 6.04167 18.7703 5.66406C19.2781 5.28646 19.8966 5.09766 20.6258 5.09766Z" fill="white"/>
<path d="M37.3844 35.3906C35.3401 35.3906 33.5693 34.9935 32.0719 34.1992C30.5745 33.4049 29.4221 32.1875 28.6148 30.5469C27.8076 28.9062 27.4039 26.8229 27.4039 24.2969C27.4039 21.6667 27.8466 19.5182 28.732 17.8516C29.6174 16.1849 30.8414 14.9544 32.4039 14.1602C33.9794 13.3659 35.7828 12.9688 37.8141 12.9688C39.1031 12.9688 40.2685 13.099 41.3102 13.3594C42.3648 13.6068 43.2568 13.9128 43.9859 14.2773L42.6188 17.9492C41.8245 17.6237 41.0107 17.3503 40.1773 17.1289C39.344 16.9076 38.5432 16.7969 37.775 16.7969C36.512 16.7969 35.4573 17.0768 34.6109 17.6367C33.7776 18.1966 33.1526 19.0299 32.7359 20.1367C32.3323 21.2435 32.1305 22.6172 32.1305 24.2578C32.1305 25.8464 32.3388 27.1875 32.7555 28.2812C33.1721 29.362 33.7906 30.1823 34.6109 30.7422C35.4313 31.2891 36.4404 31.5625 37.6383 31.5625C38.8232 31.5625 39.8844 31.4193 40.8219 31.1328C41.7594 30.8464 42.6448 30.4753 43.4781 30.0195V34.0039C42.6578 34.4727 41.7789 34.8177 40.8414 35.0391C39.9039 35.2734 38.7516 35.3906 37.3844 35.3906Z" fill="white"/>
<path d="M52.3461 4.60938V19.2969C52.3461 19.9609 52.32 20.6901 52.268 21.4844C52.2159 22.2656 52.1638 23.0013 52.1117 23.6914H52.2094C52.5479 23.2357 52.9516 22.7018 53.4203 22.0898C53.9021 21.4779 54.3578 20.944 54.7875 20.4883L61.3891 13.3789H66.6625L58.0102 22.6758L67.2289 35H61.8383L54.9242 25.5078L52.3461 27.7148V35H47.7562V4.60938H52.3461Z" fill="white"/>
<path d="M78.4992 12.9688C80.4263 12.9688 82.0799 13.3659 83.4602 14.1602C84.8404 14.9544 85.9016 16.0807 86.6438 17.5391C87.3859 18.9974 87.757 20.7422 87.757 22.7734V25.2344H73.3234C73.3755 27.3307 73.9354 28.9453 75.0031 30.0781C76.0839 31.2109 77.5943 31.7773 79.5344 31.7773C80.9146 31.7773 82.1516 31.6471 83.2453 31.3867C84.3521 31.1133 85.4914 30.7161 86.6633 30.1953V33.9258C85.5826 34.4336 84.4823 34.8047 83.3625 35.0391C82.2427 35.2734 80.9016 35.3906 79.3391 35.3906C77.2167 35.3906 75.3482 34.9805 73.7336 34.1602C72.132 33.3268 70.8755 32.0898 69.9641 30.4492C69.0656 28.8086 68.6164 26.7708 68.6164 24.3359C68.6164 21.9141 69.0266 19.8568 69.8469 18.1641C70.6672 16.4714 71.8195 15.1823 73.3039 14.2969C74.7883 13.4115 76.5201 12.9688 78.4992 12.9688ZM78.4992 16.4258C77.0539 16.4258 75.882 16.8945 74.9836 17.832C74.0982 18.7695 73.5773 20.1432 73.4211 21.9531H83.2648C83.2518 20.8724 83.0695 19.9154 82.718 19.082C82.3794 18.2487 81.8586 17.5977 81.1555 17.1289C80.4654 16.6602 79.5799 16.4258 78.4992 16.4258Z" fill="white"/>
<path d="M100.18 31.6797C100.779 31.6797 101.371 31.6276 101.957 31.5234C102.543 31.4062 103.077 31.2695 103.559 31.1133V34.5898C103.051 34.8112 102.393 35 101.586 35.1562C100.779 35.3125 99.9388 35.3906 99.0664 35.3906C97.8424 35.3906 96.7422 35.1888 95.7656 34.7852C94.7891 34.3685 94.0143 33.6589 93.4414 32.6562C92.8685 31.6536 92.582 30.2669 92.582 28.4961V16.875H89.6328V14.8242L92.7969 13.2031L94.3008 8.57422H97.1914V13.3789H103.383V16.875H97.1914V28.4375C97.1914 29.5312 97.4648 30.3451 98.0117 30.8789C98.5586 31.4128 99.2812 31.6797 100.18 31.6797Z" fill="white"/>
<path d="M115.766 12.9688C117.693 12.9688 119.347 13.3659 120.727 14.1602C122.108 14.9544 123.169 16.0807 123.911 17.5391C124.653 18.9974 125.024 20.7422 125.024 22.7734V25.2344H110.591C110.643 27.3307 111.203 28.9453 112.27 30.0781C113.351 31.2109 114.861 31.7773 116.802 31.7773C118.182 31.7773 119.419 31.6471 120.512 31.3867C121.619 31.1133 122.759 30.7161 123.93 30.1953V33.9258C122.85 34.4336 121.749 34.8047 120.63 35.0391C119.51 35.2734 118.169 35.3906 116.606 35.3906C114.484 35.3906 112.615 34.9805 111.001 34.1602C109.399 33.3268 108.143 32.0898 107.231 30.4492C106.333 28.8086 105.884 26.7708 105.884 24.3359C105.884 21.9141 106.294 19.8568 107.114 18.1641C107.934 16.4714 109.087 15.1823 110.571 14.2969C112.055 13.4115 113.787 12.9688 115.766 12.9688ZM115.766 16.4258C114.321 16.4258 113.149 16.8945 112.251 17.832C111.365 18.7695 110.845 20.1432 110.688 21.9531H120.532C120.519 20.8724 120.337 19.9154 119.985 19.082C119.647 18.2487 119.126 17.5977 118.423 17.1289C117.733 16.6602 116.847 16.4258 115.766 16.4258Z" fill="white"/>
</g>
</g>
</svg>
