<svg width="24" height="24" viewBox="0 0 24 24" fill="none" xmlns="http://www.w3.org/2000/svg">
<g id="Ticket">
<path id="Vector" d="M21.3 9.79688C21.6383 9.72603 21.9421 9.54121 22.1605 9.27331C22.3789 9.0054 22.4988 8.67065 22.5 8.325V6C22.5 5.60218 22.342 5.22064 22.0607 4.93934C21.7794 4.65804 21.3978 4.5 21 4.5H3C2.60218 4.5 2.22064 4.65804 1.93934 4.93934C1.65804 5.22064 1.5 5.60218 1.5 6V8.325C1.50125 8.67065 1.6211 9.0054 1.83952 9.27331C2.05793 9.54121 2.36168 9.72603 2.7 9.79688C3.20663 9.90194 3.66157 10.1784 3.98818 10.5797C4.31479 10.981 4.49312 11.4826 4.49312 12C4.49312 12.5174 4.31479 13.019 3.98818 13.4203C3.66157 13.8216 3.20663 14.0981 2.7 14.2031C2.36168 14.274 2.05793 14.4588 1.83952 14.7267C1.6211 14.9946 1.50125 15.3293 1.5 15.675V18C1.5 18.3978 1.65804 18.7794 1.93934 19.0607C2.22064 19.342 2.60218 19.5 3 19.5H21C21.3978 19.5 21.7794 19.342 22.0607 19.0607C22.342 18.7794 22.5 18.3978 22.5 18V15.675C22.4988 15.3293 22.3789 14.9946 22.1605 14.7267C21.9421 14.4588 21.6383 14.274 21.3 14.2031C20.7934 14.0981 20.3384 13.8216 20.0118 13.4203C19.6852 13.019 19.5069 12.5174 19.5069 12C19.5069 11.4826 19.6852 10.981 20.0118 10.5797C20.3384 10.1784 20.7934 9.90194 21.3 9.79688V9.79688ZM3 15.675C3.84772 15.5029 4.60986 15.043 5.15728 14.3732C5.70471 13.7034 6.00376 12.865 6.00376 12C6.00376 11.135 5.70471 10.2966 5.15728 9.62681C4.60986 8.95705 3.84772 8.49714 3 8.325V6H8.25V18H3V15.675Z" fill="#474747"/>
</g>
</svg>
