<svg width="48" height="48" viewBox="0 0 48 48" fill="none" xmlns="http://www.w3.org/2000/svg">
<g id="ChatsCircle">
<path id="Vector" d="M43.2188 35.5875C44.3709 33.437 44.9811 31.038 44.9965 28.5983C45.0119 26.1587 44.432 23.7522 43.3071 21.5873C42.1822 19.4225 40.5462 17.5647 38.541 16.175C36.5359 14.7854 34.222 13.9058 31.8 13.6125C31.0026 11.7525 29.837 10.0732 28.3735 8.67555C26.91 7.27789 25.1788 6.19082 23.2842 5.47978C21.3895 4.76874 19.3706 4.44842 17.3489 4.53812C15.3272 4.62781 13.3446 5.12567 11.5203 6.0017C9.69609 6.87774 8.06798 8.11385 6.73401 9.63562C5.40003 11.1574 4.38777 12.9333 3.75817 14.8566C3.12856 16.7798 2.89463 18.8106 3.07046 20.8266C3.24628 22.8426 3.82822 24.8023 4.78125 26.5875L3.61875 30.6375C3.48402 31.088 3.47367 31.5666 3.58882 32.0225C3.70397 32.4784 3.94032 32.8946 4.27283 33.2271C4.60533 33.5596 5.02159 33.796 5.47751 33.9111C5.93342 34.0263 6.41199 34.016 6.8625 33.8812L10.9125 32.7187C12.5573 33.5955 14.3499 34.1612 16.2 34.3875C17.0172 36.3027 18.2243 38.0269 19.7443 39.4501C21.2643 40.8733 23.064 41.9645 25.0288 42.6541C26.9937 43.3437 29.0805 43.6167 31.1566 43.4557C33.2327 43.2946 35.2525 42.7031 37.0875 41.7187L41.1375 42.8812C41.588 43.016 42.0666 43.0263 42.5225 42.9111C42.9784 42.796 43.3947 42.5596 43.7272 42.2271C44.0597 41.8946 44.296 41.4784 44.4112 41.0225C44.5263 40.5666 44.516 40.088 44.3813 39.6375L43.2188 35.5875ZM40.3313 34.6312C40.2221 34.8019 40.1506 34.9938 40.1215 35.1943C40.0924 35.3947 40.1064 35.5991 40.1625 35.7937L41.325 39.825L37.2938 38.6625C37.0991 38.6064 36.8948 38.5924 36.6943 38.6215C36.4938 38.6506 36.3019 38.7221 36.1313 38.8312C34.7567 39.6423 33.2346 40.1718 31.6535 40.3892C30.0724 40.6066 28.4639 40.5074 26.9215 40.0973C25.3791 39.6873 23.9336 38.9747 22.6692 38.0008C21.4048 37.027 20.3466 35.8115 19.5563 34.425C23.2428 34.032 26.6543 32.2911 29.1356 29.5364C31.6169 26.7817 32.9931 23.2074 33 19.5C32.9958 18.6009 32.9142 17.7038 32.7563 16.8187C35.3877 17.4397 37.7323 18.9312 39.4101 21.0514C41.0879 23.1716 42.0005 25.7962 42 28.5C41.9975 30.6556 41.4215 32.7717 40.3313 34.6312V34.6312Z" fill="#7F2D0F"/>
</g>
</svg>
