<svg width="48" height="48" viewBox="0 0 48 48" fill="none" xmlns="http://www.w3.org/2000/svg">
<g id="CircleWavyCheck">
<path id="Vector" d="M42.3562 19.275C41.6437 18.5438 40.9125 17.775 40.6312 17.1188C40.35 16.4625 40.3687 15.4875 40.35 14.4938C40.3312 12.675 40.2937 10.5937 38.85 9.15C37.4062 7.70625 35.325 7.66875 33.5062 7.65C32.5125 7.63125 31.5 7.6125 30.8812 7.36875C30.2625 7.125 29.4562 6.35625 28.725 5.64375C27.4312 4.40625 25.95 3 24 3C22.05 3 20.5688 4.40625 19.275 5.64375C18.5438 6.35625 17.775 7.0875 17.1188 7.36875C16.4625 7.65 15.4875 7.63125 14.4938 7.65C12.675 7.66875 10.5937 7.70625 9.15 9.15C7.70625 10.5937 7.66875 12.675 7.65 14.4938C7.63125 15.4875 7.6125 16.5 7.36875 17.1188C7.125 17.7375 6.35625 18.5438 5.64375 19.275C4.40625 20.5688 3 22.05 3 24C3 25.95 4.40625 27.4312 5.64375 28.725C6.35625 29.4562 7.0875 30.225 7.36875 30.8812C7.65 31.5375 7.63125 32.5125 7.65 33.5062C7.66875 35.325 7.70625 37.4062 9.15 38.85C10.5937 40.2937 12.675 40.3312 14.4938 40.35C15.4875 40.3687 16.5 40.3875 17.1188 40.6312C17.7375 40.875 18.5438 41.6437 19.275 42.3562C20.5688 43.5937 22.05 45 24 45C25.95 45 27.4312 43.5937 28.725 42.3562C29.4562 41.6437 30.225 40.9125 30.8812 40.6312C31.5375 40.35 32.5125 40.3687 33.5062 40.35C35.325 40.3312 37.4062 40.2937 38.85 38.85C40.2937 37.4062 40.3312 35.325 40.35 33.5062C40.3687 32.5125 40.3875 31.5 40.6312 30.8812C40.875 30.2625 41.6437 29.4562 42.3562 28.725C43.5937 27.4312 45 25.95 45 24C45 22.05 43.5937 20.5688 42.3562 19.275ZM33.2812 20.5875L22.2938 31.0875C22.0097 31.3547 21.6337 31.5024 21.2438 31.5C20.8595 31.5015 20.4897 31.3536 20.2125 31.0875L14.7188 25.8375C14.5664 25.7046 14.4425 25.5422 14.3544 25.3601C14.2664 25.1781 14.2161 24.9801 14.2066 24.7781C14.197 24.5761 14.2284 24.3743 14.2988 24.1847C14.3693 23.9952 14.4773 23.8218 14.6164 23.6751C14.7556 23.5283 14.923 23.4113 15.1085 23.3309C15.2941 23.2505 15.4939 23.2084 15.6962 23.2072C15.8984 23.2061 16.0987 23.2458 16.2852 23.324C16.4717 23.4023 16.6404 23.5174 16.7812 23.6625L21.2438 27.9187L31.2188 18.4125C31.5104 18.158 31.8891 18.0262 32.2758 18.0445C32.6624 18.0628 33.027 18.2298 33.2933 18.5107C33.5596 18.7915 33.7071 19.1644 33.7049 19.5515C33.7026 19.9386 33.5508 20.3098 33.2812 20.5875Z" fill="#008253"/>
</g>
</svg>
