<svg width="35" height="24" viewBox="0 0 35 24" fill="none" xmlns="http://www.w3.org/2000/svg">
<g id="Payment Method/Klarna">
<rect id="BASE" y="6.10352e-05" width="35" height="24" rx="4" fill="#FEB4C7"/>
<path id="Klarna" fill-rule="evenodd" clip-rule="evenodd" d="M5.42416 15.3797H4V9.00006H5.42416V15.3797ZM8.97973 9.00006H7.58645C7.58645 10.1741 7.06142 11.2516 6.14601 11.9566L5.59402 12.3816L7.73282 15.3799H9.49132L7.52334 12.621C8.4562 11.666 8.97973 10.3812 8.97973 9.00006ZM11.2513 15.3779H9.90633V9.00128H11.2513V15.3779ZM15.3148 10.9669V11.2491C14.9519 10.9946 14.5139 10.845 14.0415 10.845C12.7911 10.845 11.7775 11.8871 11.7775 13.1725C11.7775 14.458 12.7911 15.5 14.0415 15.5C14.5139 15.5 14.9519 15.3505 15.3148 15.096V15.3779H16.5995V10.9669H15.3148ZM15.3109 13.1727C15.3109 13.7995 14.7898 14.3076 14.1469 14.3076C13.5041 14.3076 12.9829 13.7995 12.9829 13.1727C12.9829 12.5459 13.5041 12.0379 14.1469 12.0379C14.7898 12.0379 15.3109 12.5459 15.3109 13.1727ZM28.8671 11.2491V10.9669H30.1517V15.3779H28.8671V15.096C28.5042 15.3505 28.0662 15.5 27.5937 15.5C26.3433 15.5 25.3297 14.458 25.3297 13.1725C25.3297 11.8871 26.3433 10.845 27.5937 10.845C28.0662 10.845 28.5042 10.9946 28.8671 11.2491ZM27.6991 14.3076C28.342 14.3076 28.8631 13.7995 28.8631 13.1727C28.8631 12.5459 28.342 12.0379 27.6991 12.0379C27.0563 12.0379 26.5352 12.5459 26.5352 13.1727C26.5352 13.7995 27.0563 14.3076 27.6991 14.3076ZM23.047 10.8484C22.5338 10.8484 22.0482 11.0122 21.7235 11.4641V10.9673H20.4445V15.378H21.7392V13.06C21.7392 12.3893 22.1768 12.0608 22.7035 12.0608C23.2681 12.0608 23.5927 12.4075 23.5927 13.0509V15.378H24.8757V12.573C24.8757 11.5465 24.0819 10.8484 23.047 10.8484ZM18.5866 10.9669V11.5414C18.8442 11.1968 19.324 10.9672 19.8456 10.9672V12.2507L19.8385 12.2504L19.8304 12.2502C19.3221 12.2502 18.5896 12.6236 18.5896 13.3184V15.3779H17.2714V10.9669H18.5866ZM30.7092 14.6421C30.7092 14.1843 31.0701 13.8133 31.5153 13.8133C31.9605 13.8133 32.3214 14.1843 32.3214 14.6421C32.3214 15.0997 31.9605 15.4708 31.5153 15.4708C31.0701 15.4708 30.7092 15.0997 30.7092 14.6421Z" fill="#17120F"/>
</g>
</svg>
