<svg width="48" height="48" viewBox="0 0 48 48" fill="none" xmlns="http://www.w3.org/2000/svg">
<g id="ShieldCheckered">
<path id="Vector" d="M39 7.5H9C8.20435 7.5 7.44129 7.81607 6.87868 8.37868C6.31607 8.94129 6 9.70435 6 10.5V21.5062C6 38.2687 20.2125 43.8375 23.0625 44.775C23.6714 44.9753 24.3286 44.9753 24.9375 44.775C27.7875 43.8375 42 38.2687 42 21.5062V10.5C42 9.70435 41.6839 8.94129 41.1213 8.37868C40.5587 7.81607 39.7956 7.5 39 7.5V7.5ZM24 41.925C21.6188 41.1375 10.4438 36.75 9.13125 24H24V10.5H39V21.5062C39.0045 22.3393 38.9607 23.172 38.8688 24H24V41.925Z" fill="blue"/>
</g>
</svg>
