<svg width="20" height="20" viewBox="0 0 20 20" fill="none" xmlns="http://www.w3.org/2000/svg">
<g id="TwitterLogo">
<path id="Vector" d="M19.1953 6.07026L16.836 8.42183C16.3672 13.8828 11.7578 18.125 6.25002 18.125C5.11721 18.125 4.17971 17.9453 3.46878 17.5937C2.89846 17.3046 2.66409 17 2.60159 16.9062C2.54988 16.8277 2.51655 16.7385 2.50411 16.6453C2.49166 16.552 2.5004 16.4572 2.52969 16.3679C2.55897 16.2785 2.60805 16.1969 2.67325 16.1291C2.73845 16.0614 2.81811 16.0092 2.90628 15.9765C2.9219 15.9687 4.76565 15.2656 5.96096 13.914C5.21967 13.3862 4.56811 12.7426 4.03127 12.0078C2.96096 10.5546 1.82815 8.0312 2.50784 4.26558C2.5292 4.15363 2.58041 4.04953 2.65604 3.96427C2.73167 3.87901 2.82892 3.81576 2.93752 3.7812C3.04647 3.74553 3.16313 3.74051 3.27475 3.76669C3.38636 3.79287 3.48862 3.84924 3.57034 3.92964C3.59378 3.96089 6.19534 6.52339 9.37502 7.35151V6.87495C9.37809 6.37941 9.47874 5.88933 9.67121 5.43269C9.86368 4.97605 10.1442 4.56179 10.4968 4.21357C10.8494 3.86535 11.2671 3.58998 11.7261 3.4032C12.1851 3.21641 12.6764 3.12186 13.1719 3.12495C13.8223 3.13423 14.4592 3.31181 15.0205 3.6404C15.5819 3.969 16.0485 4.43739 16.375 4.99995H18.75C18.8734 4.99957 18.9942 5.03571 19.097 5.10384C19.1999 5.17196 19.2803 5.26901 19.3281 5.38276C19.3732 5.49821 19.3846 5.62404 19.3611 5.74571C19.3376 5.86737 19.2801 5.9799 19.1953 6.07026Z" fill="#EBEBEB"/>
</g>
</svg>
